<svg width="1124" height="895" viewBox="0 0 1124 895" fill="none" xmlns="http://www.w3.org/2000/svg">
<path d="M320 468L303.7 417.2L287.3 468H270.5L246.7 396.6H264.2L279.7 449.3L296.4 397H311.8L328.6 449.4L344.1 396.6H361L337.3 468H320ZM426.476 468V438.1H387.476V468H371.476V396.6H387.476V424.2H426.476V396.6H442.476V468H426.476ZM460.05 468V396.6H519.85V409.7H476.05V424.7H517.75V437.8H476.05V454.9H522.05L520.05 468H460.05ZM587.243 468L571.643 441.3H550.743V468H535.343V396.6H570.443C590.376 396.6 600.343 404.033 600.343 418.9C600.343 423.7 599.21 427.7 596.943 430.9C594.743 434.1 591.343 436.6 586.743 438.4L604.743 468H587.243ZM569.243 429C574.51 429 578.376 428.2 580.843 426.6C583.376 424.933 584.643 422.333 584.643 418.8C584.643 415.267 583.443 412.733 581.043 411.2C578.71 409.667 574.843 408.9 569.443 408.9H550.743V429H569.243ZM614.933 468V396.6H674.733V409.7H630.933V424.7H672.633V437.8H630.933V454.9H676.933L674.933 468H614.933ZM738.265 468V409.9H710.265V396.6H782.265V409.9H754.265V468H738.265ZM867.963 432.3C867.963 439.833 866.297 446.433 862.963 452.1C859.697 457.7 854.93 462.067 848.663 465.2C842.463 468.267 835.063 469.8 826.463 469.8C818.197 469.8 810.963 468.333 804.763 465.4C798.63 462.4 793.83 458.1 790.363 452.5C786.963 446.833 785.263 440.1 785.263 432.3C785.263 424.767 786.897 418.2 790.163 412.6C793.497 406.933 798.263 402.567 804.463 399.5C810.73 396.367 818.163 394.8 826.763 394.8C835.03 394.8 842.23 396.3 848.363 399.3C854.563 402.233 859.363 406.533 862.763 412.2C866.23 417.8 867.963 424.5 867.963 432.3ZM851.363 432.3C851.363 424.567 849.197 418.567 844.863 414.3C840.53 410.033 834.43 407.9 826.563 407.9C818.763 407.9 812.697 410.067 808.363 414.4C804.03 418.667 801.863 424.633 801.863 432.3C801.863 440.033 804.03 446.033 808.363 450.3C812.697 454.567 818.797 456.7 826.663 456.7C834.463 456.7 840.53 454.567 844.863 450.3C849.197 445.967 851.363 439.967 851.363 432.3ZM897.62 445.5V444.2C897.62 440.867 898.42 437.933 900.02 435.4C901.687 432.867 904.587 430.133 908.72 427.2C912.254 424.667 914.62 422.633 915.82 421.1C917.087 419.567 917.72 417.867 917.72 416C917.72 413.333 916.62 411.267 914.42 409.8C912.287 408.333 909.254 407.6 905.32 407.6C900.787 407.6 897.32 408.4 894.92 410C892.52 411.533 890.82 414.067 889.82 417.6L875.82 416.1C877.087 409.233 880.22 404.067 885.22 400.6C890.287 397.133 897.187 395.4 905.92 395.4C914.454 395.4 921.087 397.067 925.82 400.4C930.62 403.667 933.02 408.233 933.02 414.1C933.02 417.967 932.087 421.333 930.22 424.2C928.42 427 925.354 429.933 921.02 433C917.22 435.667 914.687 437.767 913.42 439.3C912.22 440.833 911.62 442.533 911.62 444.4V445.5H897.62ZM897.02 468V451.9H912.12V468H897.02Z" fill="white"/>
<g style="mix-blend-mode:difference">
<path d="M3.01528 465.384C3.15156 466.48 4.15063 467.259 5.24676 467.122L23.1092 464.901C24.2054 464.765 24.9835 463.766 24.8472 462.67C24.7109 461.574 23.7118 460.796 22.6157 460.932L6.73796 462.906L4.76385 447.028C4.62757 445.932 3.6285 445.154 2.53237 445.29C1.43624 445.427 0.658129 446.426 0.794413 447.522L3.01528 465.384ZM535.5 155.138L534.544 156.894L534.544 156.894L535.5 155.138ZM1123.24 877.63C1123.78 876.671 1123.45 875.449 1122.49 874.901L1106.86 865.971C1105.9 865.423 1104.68 865.756 1104.14 866.715C1103.59 867.674 1103.92 868.896 1104.88 869.444L1118.77 877.382L1110.83 891.274C1110.28 892.233 1110.62 893.455 1111.58 894.003C1112.54 894.551 1113.76 894.217 1114.31 893.258L1123.24 877.63ZM6.5779 466.367C61.086 396.38 152.978 296.932 251.456 226.048C300.697 190.605 351.487 162.374 399.999 148.493C448.493 134.618 494.547 135.122 534.544 156.894L536.456 153.381C495.253 130.953 448.041 130.587 398.898 144.648C349.773 158.704 298.557 187.216 249.119 222.802C150.238 293.976 58.0807 393.729 3.4221 463.909L6.5779 466.367ZM534.544 156.894C559.503 170.48 574.295 188.85 581.563 210.753C588.852 232.722 588.626 258.416 583.192 286.674C572.315 343.241 540.736 409.35 508.332 474.939C476.005 540.373 442.845 605.31 429.217 659.139C422.4 686.067 420.4 710.463 426.001 730.877C431.635 751.408 444.908 767.721 468.162 778.453L469.838 774.822C447.592 764.554 435.162 749.148 429.858 729.818C424.522 710.371 426.35 686.763 433.095 660.121C446.592 606.808 479.495 542.34 511.918 476.711C544.264 411.238 576.122 344.628 587.12 287.429C592.624 258.805 592.945 232.354 585.359 209.493C577.752 186.566 562.247 167.42 536.456 153.381L534.544 156.894ZM468.162 778.453C514.467 799.825 568.321 790.107 622.33 762.29C676.368 734.458 730.91 688.343 778.908 636.243C826.917 584.131 868.471 525.934 896.503 473.835C910.519 447.787 921.178 423.22 927.565 401.667C933.938 380.163 936.124 361.445 932.952 347.203L929.048 348.072C932.001 361.33 930.031 379.268 923.73 400.53C917.443 421.743 906.911 446.05 892.981 471.94C865.122 523.716 823.77 581.643 775.967 633.532C728.153 685.432 673.975 731.191 620.498 758.734C566.991 786.293 514.533 795.45 469.838 774.822L468.162 778.453ZM932.952 347.203C929.678 332.501 917.858 322.658 900.469 316.353C883.085 310.049 859.739 307.116 832.566 306.435C778.193 305.071 707.797 312.717 637.512 321.152C567.143 329.596 496.884 338.83 442.54 340.717C415.358 341.661 392.313 340.758 375.294 337.056C358.133 333.324 347.869 326.922 344.907 317.536L341.093 318.739C344.756 330.353 357.07 337.186 374.444 340.965C391.961 344.775 415.408 345.661 442.679 344.714C497.241 342.82 567.732 333.554 637.988 325.123C708.328 316.682 778.432 309.079 832.465 310.434C859.495 311.112 882.329 314.03 899.105 320.113C915.876 326.195 926.197 335.274 929.048 348.072L932.952 347.203ZM344.907 317.536C341.814 307.73 343.914 294.67 350.691 279.146C357.441 263.684 368.688 246.102 383.376 227.445C412.744 190.141 455.665 148.8 503.164 111.904C550.666 75.0073 602.649 42.6331 650.109 23.1992C697.711 3.70763 740.19 -2.53124 769.106 11.9263L770.894 8.34859C740.31 -6.94388 696.351 -0.0577438 648.594 19.4975C600.695 39.1106 548.397 71.7051 500.711 108.745C453.022 145.788 409.849 187.352 380.233 224.971C365.429 243.775 353.961 261.657 347.025 277.545C340.117 293.371 337.561 307.545 341.093 318.739L344.907 317.536ZM769.106 11.9263C797.637 26.1922 804.964 57.2853 800.169 100.157C795.383 142.942 778.614 196.438 760.22 254.092C741.855 311.652 721.905 373.264 710.94 431.997C699.98 490.705 697.934 546.833 715.631 593.349L719.369 591.927C702.066 546.443 703.958 491.195 714.872 432.731C725.782 374.293 745.645 312.936 764.03 255.308C782.386 197.775 799.305 143.864 804.144 100.602C808.973 57.4272 801.863 23.8327 770.894 8.34859L769.106 11.9263ZM715.631 593.349C750.85 685.925 833.01 762.473 915.83 813.218C957.264 838.605 998.945 857.585 1035.14 868.906C1071.22 880.194 1102.19 883.976 1122.03 878.567L1120.97 874.708C1102.31 879.799 1072.28 876.331 1036.33 865.088C1000.49 853.878 959.111 835.045 917.92 809.807C835.49 759.302 754.15 683.35 719.369 591.927L715.631 593.349Z" fill="white"/>
</g>
</svg>
