<svg width="395" height="394" viewBox="0 0 395 394" fill="none" xmlns="http://www.w3.org/2000/svg">
<g style="mix-blend-mode:difference">
<path d="M210.526 23.0972L203.479 22.8869L203.555 20.338L213.391 20.6315L213.133 29.2677C211.906 30.1515 210.385 30.8364 208.57 31.3225C206.775 31.7892 204.918 31.9939 202.999 31.9366C200.58 31.8644 198.474 31.3614 196.681 30.4275C194.908 29.4942 193.547 28.173 192.597 26.464C191.668 24.7555 191.238 22.7418 191.307 20.4228C191.374 18.1838 191.902 16.2287 192.893 14.5575C193.883 12.8663 195.273 11.5771 197.06 10.69C198.868 9.78355 200.981 9.36639 203.4 9.43857C205.899 9.51313 207.972 10.1052 209.62 11.2149C211.268 12.3045 212.402 13.859 213.022 15.8784L210.068 16.3005C209.569 14.925 208.75 13.8901 207.61 13.1958C206.49 12.5021 205.03 12.1284 203.231 12.0747C200.552 11.9948 198.43 12.7018 196.865 14.1958C195.3 15.6698 194.478 17.7662 194.396 20.485C194.316 23.1838 195.043 25.3064 196.578 26.8528C198.112 28.3993 200.299 29.2149 203.137 29.2996C206.016 29.3855 208.431 28.9373 210.381 27.955L210.526 23.0972Z" fill="white"/>
<path d="M237.969 36.201L234.872 26.71C234.652 26.6852 234.19 26.6 233.485 26.4546L226.903 25.0975L225.158 33.5594L222.308 32.9717L226.634 11.9931L236.418 14.0107C241.825 15.1255 244.096 17.7788 243.231 21.9706C242.641 24.8304 240.875 26.4163 237.931 26.7282L241.318 36.8917L237.969 36.201ZM234.1 23.9166C237.665 24.6517 239.704 23.7754 240.217 21.2878C240.488 19.9754 240.26 18.9483 239.535 18.2066C238.81 17.4649 237.527 16.9042 235.686 16.5245L228.957 15.137L227.43 22.5412L234.1 23.9166Z" fill="white"/>
<path d="M265.711 45.8493L265.245 39.3176L254.326 35.0327L249.57 39.5152L246.609 38.3535L264.097 22.2055L266.945 23.3233L268.783 47.0548L265.711 45.8493ZM264.303 25.7027L256.286 33.1592L265.11 36.6221L264.303 25.7027Z" fill="white"/>
<path d="M275.717 50.7859L286.813 32.4639L295.487 37.7166C297.848 39.1463 299.337 40.7028 299.954 42.386C300.571 44.0693 300.31 45.8518 299.171 47.7336C297.989 49.6839 296.493 50.765 294.681 50.9771C292.879 51.172 290.73 50.5132 288.232 49.0006L282.407 45.4729L278.258 52.3244L275.717 50.7859ZM289.661 46.8147C291.269 47.7886 292.634 48.2178 293.756 48.1024C294.889 47.9698 295.823 47.2962 296.559 46.0816C297.273 44.9012 297.42 43.8093 296.999 42.8061C296.578 41.8028 295.563 40.8142 293.955 39.8403L288.002 36.2349L283.759 43.2404L289.661 46.8147Z" fill="white"/>
<path d="M311.448 76.7231L317.823 69.4258L307.25 60.1885L300.875 67.4858L298.638 65.5318L312.731 49.4008L314.967 51.3548L309.085 58.0874L319.659 67.3247L325.541 60.5921L327.777 62.5462L313.684 78.6772L311.448 76.7231Z" fill="white"/>
<path d="M320.695 86.4413L336.794 72.3112L338.753 74.5433L322.655 88.6735L320.695 86.4413Z" fill="white"/>
<path d="M347.026 110.23C344.746 111.245 342.561 111.356 340.47 110.563C338.378 109.77 336.489 108.109 334.803 105.579C333.527 103.666 332.773 101.741 332.54 99.805C332.335 97.8747 332.667 96.0303 333.538 94.2718C334.42 92.5301 335.826 91.0157 337.757 89.7288C339.57 88.5195 341.44 87.826 343.364 87.6485C345.289 87.4709 347.134 87.8398 348.898 88.755C350.662 89.6702 352.187 91.093 353.474 93.0233C355.049 95.3863 355.823 97.6106 355.796 99.6963C355.785 101.771 354.98 103.737 353.383 105.596L351.394 103.424C352.481 101.954 353.014 100.517 352.992 99.1139C352.98 97.7272 352.409 96.1851 351.277 94.4877C350.357 93.1066 349.264 92.0804 347.999 91.4092C346.734 90.7381 345.367 90.4719 343.897 90.6106C342.427 90.7493 340.952 91.3123 339.471 92.2997C338.023 93.265 336.941 94.3827 336.226 95.653C335.527 96.9122 335.233 98.274 335.344 99.7384C335.471 101.192 336.023 102.651 337 104.115C338.22 105.945 339.501 107.146 340.844 107.718C342.197 108.306 343.692 108.294 345.329 107.684L347.026 110.23Z" fill="white"/>
<path d="M351.111 134.691L371.421 127.885L374.299 136.476C375.532 140.155 375.594 143.266 374.485 145.81C373.401 148.367 371.228 150.192 367.966 151.285C364.705 152.378 361.839 152.168 359.37 150.653C356.92 149.133 355.044 146.429 353.741 142.542L351.111 134.691ZM356.254 141.826C357.258 144.822 358.662 146.873 360.467 147.976C362.29 149.074 364.462 149.2 366.985 148.355C372.105 146.64 373.718 142.956 371.825 137.305L369.89 131.53L354.529 136.677L356.254 141.826Z" fill="white"/>
<path d="M359.766 163.664L380.946 160.467L383.489 177.317L380.908 177.706L378.808 163.794L372.431 164.756L374.427 177.986L371.846 178.376L369.85 165.146L362.79 166.211L364.983 180.747L362.327 180.632L359.766 163.664Z" fill="white"/>
<path d="M378.634 206.469C379.883 205.991 380.787 205.237 381.345 204.207C381.903 203.197 382.199 201.762 382.232 199.902C382.27 197.783 382.019 196.138 381.48 194.968C380.941 193.818 380.151 193.234 379.111 193.216C378.411 193.203 377.828 193.363 377.362 193.695C376.916 194.047 376.546 194.59 376.253 195.325C375.96 196.08 375.712 197.086 375.509 198.342L374.835 202.471C374.411 204.944 373.669 206.761 372.608 207.922C371.566 209.103 370.156 209.678 368.376 209.647C366.416 209.612 364.902 208.744 363.832 207.045C362.782 205.346 362.284 202.997 362.337 199.997C362.397 196.678 363.002 194.148 364.153 192.408C365.304 190.669 367.022 189.689 369.307 189.47L369.252 192.53C367.827 192.784 366.764 193.525 366.062 194.753C365.36 195.981 364.988 197.744 364.947 200.044C364.91 202.124 365.191 203.729 365.791 204.86C366.411 205.991 367.301 206.567 368.461 206.588C369.441 206.605 370.217 206.239 370.791 205.489C371.364 204.739 371.796 203.507 372.087 201.792L372.693 198.082C373.029 196.088 373.467 194.515 374.008 193.365C374.548 192.234 375.223 191.416 376.032 190.91C376.861 190.425 377.875 190.193 379.075 190.215C380.934 190.248 382.369 191.123 383.379 192.842C384.408 194.56 384.896 196.93 384.842 199.949C384.809 201.809 384.581 203.355 384.159 204.588C383.757 205.841 383.138 206.85 382.305 207.615C381.471 208.38 380.4 208.951 379.094 209.328L378.634 206.469Z" fill="white"/>
<path d="M361.418 219.115L382.615 222.195L382.188 225.134L360.991 222.054L361.418 219.115Z" fill="white"/>
<path d="M362.611 252.188L364.537 245.406L366.99 246.103L364.302 255.568L355.99 253.208C355.433 251.803 355.141 250.16 355.113 248.281C355.099 246.427 355.354 244.576 355.879 242.729C356.54 240.401 357.542 238.482 358.886 236.972C360.224 235.48 361.838 234.483 363.727 233.98C365.611 233.496 367.668 233.571 369.9 234.205C372.055 234.817 373.822 235.807 375.2 237.176C376.598 238.55 377.509 240.212 377.932 242.162C378.37 244.136 378.258 246.288 377.597 248.616C376.914 251.02 375.833 252.886 374.354 254.213C372.895 255.545 371.11 256.265 369.001 256.373L369.313 253.405C370.769 253.257 371.973 252.715 372.925 251.78C373.871 250.863 374.59 249.539 375.082 247.808C375.814 245.23 375.647 242.999 374.58 241.116C373.533 239.239 371.702 237.929 369.085 237.186C366.488 236.448 364.252 236.635 362.377 237.745C360.503 238.855 359.178 240.776 358.402 243.508C357.615 246.278 357.46 248.729 357.936 250.86L362.611 252.188Z" fill="white"/>
<path d="M342.645 276.586L364.396 271.441L348.959 263.811L350.248 261.202L369.451 270.693L368.175 273.275L346.423 278.42L361.861 286.049L360.571 288.658L341.369 279.167L342.645 276.586Z" fill="white"/>
<path d="M331.554 310.288L336.074 310.744L334.756 306.396L337.418 305.711L338.047 310.424L341.646 307.985L342.882 310.401L339.136 311.98L342.804 314.416L340.974 316.64L337.878 313.509L337.05 317.49L334.441 316.742L336.141 312.741L331.395 313.032L331.554 310.288Z" fill="white"/>
<path d="M305.597 322.197L319.444 338.539L317.178 340.459L303.331 324.117L305.597 322.197Z" fill="white"/>
<path d="M295.143 330.726L306.976 348.581L304.501 350.222L294.109 334.543L282.406 342.299L281.389 339.842L295.143 330.726Z" fill="white"/>
<path d="M273.613 344.069L282.588 363.518L279.891 364.763L272.01 347.684L259.262 353.566L258.631 350.983L273.613 344.069Z" fill="white"/>
<path d="M239.991 379.099L237.125 379.876L233.773 367.512C232.177 361.625 234.564 357.818 240.934 356.091C247.305 354.364 251.288 356.444 252.883 362.332L256.235 374.696L253.368 375.473L249.993 363.022C249.423 360.918 248.459 359.501 247.1 358.771C245.728 358.065 243.903 358.021 241.625 358.639C239.347 359.256 237.804 360.213 236.995 361.51C236.172 362.832 236.046 364.544 236.616 366.648L239.991 379.099Z" fill="white"/>
<path d="M206.992 378.222C207.6 379.413 208.445 380.232 209.529 380.678C210.592 381.126 212.05 381.268 213.903 381.104C216.015 380.917 217.624 380.494 218.73 379.834C219.816 379.176 220.313 378.329 220.222 377.293C220.16 376.595 219.94 376.033 219.56 375.604C219.163 375.198 218.584 374.888 217.822 374.674C217.04 374.462 216.014 374.322 214.743 374.254L210.566 374.021C208.062 373.861 206.177 373.315 204.91 372.383C203.624 371.473 202.903 370.131 202.747 368.358C202.574 366.405 203.276 364.807 204.852 363.564C206.431 362.34 208.714 361.596 211.702 361.331C215.009 361.039 217.589 361.373 219.441 362.333C221.292 363.294 222.448 364.898 222.908 367.146L219.86 367.416C219.456 366.026 218.606 365.047 217.311 364.479C216.016 363.911 214.223 363.729 211.932 363.931C209.86 364.114 208.294 364.564 207.233 365.281C206.174 366.017 205.695 366.963 205.797 368.118C205.884 369.094 206.33 369.828 207.136 370.319C207.943 370.809 209.214 371.109 210.95 371.216L214.703 371.426C216.722 371.549 218.332 371.818 219.533 372.234C220.715 372.651 221.6 373.235 222.188 373.987C222.758 374.759 223.096 375.743 223.202 376.939C223.366 378.791 222.647 380.311 221.045 381.496C219.445 382.702 217.141 383.438 214.133 383.704C212.28 383.868 210.719 383.805 209.448 383.516C208.16 383.249 207.091 382.741 206.242 381.993C205.392 381.245 204.711 380.241 204.198 378.981L206.992 378.222Z" fill="white"/>
<path d="M186.35 362.146L184.913 380.901L193.767 381.58L193.568 384.182L172.898 382.598L173.098 379.996L181.952 380.674L183.389 361.919L186.35 362.146Z" fill="white"/>
<path d="M151.065 356.084L153.829 365.677C154.047 365.71 154.507 365.811 155.206 365.981L161.736 367.566L163.775 359.171L166.603 359.857L161.548 380.672L151.84 378.315C146.476 377.012 144.299 374.281 145.309 370.122C145.998 367.285 147.819 365.761 150.772 365.552L147.741 355.277L151.065 356.084ZM154.503 368.496C150.966 367.637 148.897 368.441 148.298 370.91C147.982 372.212 148.173 373.246 148.872 374.013C149.571 374.779 150.834 375.384 152.66 375.828L159.336 377.449L161.12 370.103L154.503 368.496Z" fill="white"/>
<path d="M123.676 345.474L123.914 352.018L134.677 356.681L139.587 352.367L142.505 353.631L124.465 369.16L121.657 367.943L120.648 344.162L123.676 345.474ZM124.38 365.657L132.653 358.485L123.955 354.717L124.38 365.657Z" fill="white"/>
<path d="M108.468 336.665L98.2157 352.435L105.661 357.275L104.238 359.463L86.8582 348.164L88.2808 345.976L95.7257 350.816L105.978 335.046L108.468 336.665Z" fill="white"/>
<path d="M92.2389 324.911L78.488 341.335L76.2108 339.428L89.9617 323.005L92.2389 324.911Z" fill="white"/>
<path d="M58.7368 306.536C60.3829 305.047 62.1583 304.088 64.063 303.659C65.9528 303.244 67.8642 303.389 69.7972 304.094C71.7019 304.798 73.4728 306.055 75.11 307.864C76.6934 309.614 77.7628 311.451 78.318 313.376C78.8584 315.315 78.8405 317.233 78.2643 319.13C77.6748 321.012 76.5198 322.731 74.7996 324.288C73.1534 325.777 71.3855 326.73 69.4956 327.145C67.591 327.574 65.6863 327.436 63.7816 326.732C61.8486 326.027 60.0635 324.77 58.4264 322.96C56.8429 321.211 55.781 319.366 55.2406 317.428C54.6854 315.503 54.7026 313.599 55.2921 311.717C55.8683 309.82 57.0165 308.093 58.7368 306.536ZM60.8101 308.828C58.7932 310.653 57.752 312.647 57.6864 314.81C57.6061 316.987 58.5052 319.113 60.3839 321.189C62.2492 323.25 64.2754 324.357 66.4626 324.509C68.6364 324.646 70.7243 323.808 72.7263 321.997C74.7432 320.172 75.7918 318.171 75.8722 315.994C75.9377 313.831 75.0311 311.711 73.1524 309.635C71.2872 307.574 69.2677 306.475 67.0939 306.338C64.9067 306.186 62.8121 307.016 60.8101 308.828Z" fill="white"/>
<path d="M52.2289 277.059L44.9389 298.189L59.6439 289.228L61.1582 291.713L42.8665 302.859L41.3679 300.4L48.6579 279.27L33.9529 288.231L32.4386 285.746L50.7302 274.6L52.2289 277.059Z" fill="white"/>
<path d="M29.6889 249.659L26.8858 253.234L31.264 254.446L30.419 257.061L26.1007 255.071L26.2356 259.417L23.5328 259.169L24.203 255.159L20.183 256.955L19.2829 254.219L23.5842 253.278L20.6637 250.449L22.6915 248.645L25.1631 252.221L27.4562 248.056L29.6889 249.659Z" fill="white"/>
<path d="M31.685 201.687L14.4449 208.678L32.4189 213.514L32.6158 216.688L11.6922 225.351L11.4822 221.967L28.7989 215.242L10.8848 210.402L10.6879 207.228L27.9243 200.177L9.84905 195.648L9.64652 192.384L31.4806 198.393L31.685 201.687Z" fill="white"/>
<path d="M32.0953 182.653L10.879 179.706L13.2236 162.828L15.8087 163.187L13.8729 177.124L20.2615 178.011L22.1025 164.758L24.6876 165.117L22.8467 178.37L29.9188 179.353L31.9414 164.792L34.4564 165.657L32.0953 182.653Z" fill="white"/>
<path d="M36.6384 155.762L16.2113 149.316L19.0823 140.219C20.7735 134.859 23.3643 132.73 26.8547 133.832C27.9609 134.181 28.7957 134.759 29.3589 135.566C29.9092 136.347 30.1814 137.346 30.1756 138.56C31.9638 136.083 34.0309 135.215 36.3769 135.956C38.3033 136.563 39.5462 137.742 40.1056 139.492C40.6651 141.241 40.5085 143.499 39.6357 146.264L36.6384 155.762ZM27.6997 142.718C28.2353 141.02 28.3721 139.69 28.1099 138.726C27.8477 137.763 27.1635 137.106 26.0573 136.757C25.0273 136.432 24.1511 136.617 23.4285 137.312C22.6869 138.001 22.0241 139.27 21.4403 141.12L19.4903 147.3L25.6413 149.241L27.6997 142.718ZM37.1874 145.649C37.8134 143.665 37.9977 142.151 37.7406 141.105C37.4703 140.034 36.7249 139.306 35.5042 138.92C34.2836 138.535 33.2331 138.707 32.353 139.436C31.4728 140.165 30.7378 141.464 30.148 143.333L28.0444 149.999L35.111 152.229L37.1874 145.649Z" fill="white"/>
<path d="M51.984 116.856L33.8872 105.396L38.7342 97.7417C40.81 94.4636 43.1846 92.4519 45.8581 91.7066C48.5255 90.9337 51.3123 91.4674 54.2186 93.3078C57.1249 95.1482 58.7699 97.5037 59.1537 100.374C59.5205 103.234 58.6072 106.396 56.4138 109.86L51.984 116.856ZM54.2729 108.362C55.9635 105.693 56.6676 103.31 56.3853 101.213C56.0861 99.1065 54.8128 97.3415 52.5655 95.9184C48.0032 93.0294 44.1278 94.1026 40.9393 99.138L37.6812 104.283L51.3679 112.95L54.2729 108.362Z" fill="white"/>
<path d="M68.9962 91.8567L53.1498 77.4447L64.6148 64.8385L66.5457 66.5946L57.0789 77.0036L61.8506 81.3433L70.8531 71.4448L72.784 73.2009L63.7815 83.0994L69.0637 87.9034L78.9543 77.0284L80.542 79.1618L68.9962 91.8567Z" fill="white"/>
<path d="M90.2919 50.2055C89.1332 49.5384 87.978 49.3133 86.8264 49.5303C85.6906 49.7349 84.3909 50.4111 82.9274 51.5591C81.2593 52.8674 80.1417 54.0999 79.5745 55.2564C79.0232 56.4006 79.0684 57.3818 79.7102 58.2002C80.1422 58.7509 80.6339 59.1024 81.1854 59.2545C81.7402 59.3786 82.3951 59.3224 83.1502 59.086C83.921 58.8373 84.8576 58.3949 85.9601 57.7589L89.588 55.676C91.7738 54.4445 93.6519 53.8737 95.2223 53.9638C96.796 54.0258 98.1321 54.7571 99.2306 56.1577C100.44 57.6999 100.724 59.4222 100.081 61.3245C99.4252 63.2111 97.9172 65.0801 95.5567 66.9316C92.9444 68.9806 90.6002 70.1075 88.5241 70.3124C86.4481 70.5174 84.6042 69.8031 82.9925 68.1695L85.4003 66.281C86.4969 67.2255 87.7429 67.5827 89.1383 67.3525C90.5336 67.1223 92.1362 66.2974 93.9459 64.878C95.5825 63.5943 96.6502 62.3629 97.1488 61.1839C97.6351 59.9891 97.5203 58.9353 96.8044 58.0226C96.1996 57.2515 95.4254 56.8801 94.4817 56.9085C93.5381 56.9369 92.3094 57.3796 90.7956 58.2365L87.5353 60.1074C85.7765 61.1057 84.2802 61.7582 83.0466 62.0649C81.8286 62.3593 80.7682 62.3523 79.8654 62.0437C78.9659 61.7071 78.1458 61.0667 77.4052 60.1224C76.2573 58.6589 76.0313 56.9934 76.7271 55.1259C77.4105 53.2427 78.9404 51.3692 81.3166 49.5054C82.7801 48.3575 84.1232 47.5583 85.3457 47.1077C86.5717 46.6291 87.7445 46.4717 88.8643 46.6356C89.9841 46.7994 91.1026 47.2693 92.2196 48.0453L90.2919 50.2055Z" fill="white"/>
<path d="M110.967 55.58L99.9786 37.1931L102.528 35.6695L113.516 54.0565L110.967 55.58Z" fill="white"/>
<path d="M135.869 33.7818L129.393 36.568L128.385 34.2256L137.424 30.3368L140.838 38.2734C140.1 39.5927 139.01 40.8561 137.57 42.0635C136.141 43.2447 134.544 44.2147 132.78 44.9735C130.557 45.9299 128.436 46.3636 126.416 46.2745C124.415 46.1775 122.623 45.555 121.041 44.407C119.476 43.2511 118.236 41.6075 117.319 39.4764C116.434 37.4188 116.087 35.4234 116.279 33.4903C116.462 31.5388 117.177 29.7836 118.422 28.2245C119.678 26.6392 121.417 25.3683 123.64 24.4119C125.936 23.4239 128.066 23.0847 130.028 23.3945C131.982 23.6859 133.667 24.6158 135.082 26.1842L132.583 27.8146C131.549 26.7787 130.369 26.1869 129.043 26.0391C127.735 25.8833 126.254 26.1612 124.601 26.8725C122.139 27.9317 120.514 29.469 119.726 31.4843C118.931 33.4813 119.071 35.7291 120.146 38.2276C121.213 40.7078 122.768 42.3247 124.813 43.0781C126.857 43.8316 129.183 43.6471 131.792 42.5247C134.438 41.3865 136.437 39.9603 137.789 38.2462L135.869 33.7818Z" fill="white"/>
<path d="M167.394 33.872L149.676 20.2467L153.5 37.0366L150.663 37.6829L145.906 16.7978L148.714 16.1582L166.432 29.7836L162.608 12.9936L165.446 12.3473L170.203 33.2324L167.394 33.872Z" fill="white"/>
<path d="M184.245 24.6572L181.746 20.8635L179.205 24.6297L176.994 22.9976L180.253 19.5353L176.09 18.2826L177.184 15.7985L180.773 17.7082L180.347 13.3258L183.227 13.3415L182.753 17.719L186.363 15.8487L187.43 18.3446L183.253 19.5517L186.474 23.0494L184.245 24.6572Z" fill="white"/>
</g>
</svg>
