<svg width="1116" height="1061" viewBox="0 0 1116 1061" fill="none" xmlns="http://www.w3.org/2000/svg">
<path d="M335.41 362.29C333.877 383.603 324.983 400.24 308.73 412.2C292.477 424.16 270.78 430.14 243.64 430.14C223.553 430.14 206.227 426.843 191.66 420.25C177.247 413.503 166.13 403.613 158.31 390.58C150.49 377.547 146.58 361.983 146.58 343.89C146.58 326.563 150.413 311.383 158.08 298.35C165.747 285.317 176.863 275.273 191.43 268.22C205.997 261.167 223.63 257.64 244.33 257.64C269.017 257.64 288.643 262.623 303.21 272.59C317.777 282.557 327.437 297.583 332.19 317.67L273.31 323.65C271.01 317.057 267.56 312.303 262.96 309.39C258.513 306.477 252.227 305.02 244.1 305.02C232.293 305.02 223.323 308.317 217.19 314.91C211.21 321.503 208.22 331.163 208.22 343.89C208.22 369.803 220.487 382.76 245.02 382.76C262.96 382.76 273.387 375.937 276.3 362.29H335.41ZM357.875 426V261.78H417.215L417.215 378.39H505.535L500.015 426L357.875 426Z" fill="white"/>
<path d="M728.66 508L719.92 483.85H651.15L642.64 508H582.84L650.92 343.78H721.76L789.84 508H728.66ZM685.65 387.94L666.56 440.38H704.51L685.65 387.94ZM915.393 343.78H974.733V433.94C974.733 460.62 967.526 480.323 953.113 493.05C938.853 505.777 916.773 512.14 886.873 512.14C856.973 512.14 834.816 505.777 820.403 493.05C806.143 480.323 799.013 460.62 799.013 433.94V343.78L858.353 343.78V438.77C858.353 447.817 860.576 454.41 865.023 458.55C869.47 462.69 876.753 464.76 886.873 464.76C896.993 464.76 904.276 462.69 908.723 458.55C913.17 454.41 915.393 447.817 915.393 438.77V343.78Z" fill="white"/>
<path d="M283.48 748L283.48 583.78H363.98C398.327 583.78 424.163 590.68 441.49 604.48C458.817 618.127 467.48 638.597 467.48 665.89C467.48 683.063 463.493 697.783 455.52 710.05C447.547 722.317 435.74 731.747 420.1 738.34C404.613 744.78 385.753 748 363.52 748H283.48ZM364.67 701.77C379.083 701.77 389.74 698.78 396.64 692.8C403.693 686.82 407.22 677.697 407.22 665.43C407.22 653.47 403.77 644.577 396.87 638.75C389.97 632.923 379.467 630.01 365.36 630.01H341.9V701.77H364.67ZM493.265 748V583.78H552.605V748H493.265Z" fill="white"/>
<path d="M899.6 733.89C899.6 751.523 895.613 766.857 887.64 779.89C879.82 792.77 868.32 802.737 853.14 809.79C837.96 816.69 819.713 820.14 798.4 820.14C778.007 820.14 760.297 816.843 745.27 810.25C730.397 803.503 718.897 793.69 710.77 780.81C702.643 767.777 698.58 752.137 698.58 733.89C698.58 716.257 702.49 701 710.31 688.12C718.283 675.087 729.86 665.12 745.04 658.22C760.22 651.167 778.467 647.64 799.78 647.64C820.173 647.64 837.807 651.013 852.68 657.76C867.707 664.353 879.283 674.167 887.41 687.2C895.537 700.08 899.6 715.643 899.6 733.89ZM837.96 733.89C837.96 721.47 834.51 711.887 827.61 705.14C820.863 698.393 811.357 695.02 799.09 695.02C786.823 695.02 777.24 698.393 770.34 705.14C763.593 711.887 760.22 721.47 760.22 733.89C760.22 746.31 763.593 755.893 770.34 762.64C777.24 769.387 786.823 772.76 799.09 772.76C811.357 772.76 820.863 769.387 827.61 762.64C834.51 755.893 837.96 746.31 837.96 733.89Z" fill="white"/>
<line x1="842" y1="599" x2="1021" y2="599" stroke="#4EF992" stroke-width="50"/>
<line x1="94" y1="476" x2="273" y2="476" stroke="#4EF992" stroke-width="50"/>
<path d="M212.579 480.633C211.534 360.503 310.676 272.872 374.527 237.327C418.932 162.899 402.824 124.596 526.897 98.4812C650.971 72.3661 881.268 163.334 915.225 294.78C949.182 426.226 650.535 397.065 596.553 513.277C542.57 629.489 726.285 630.795 745.005 745.267C763.725 859.738 467.691 977.692 350.148 965.069C232.605 952.447 164.255 869.314 212.579 745.267C260.902 621.22 213.885 630.795 212.579 480.633Z" stroke="white"/>
<path d="M342.162 803.474C237.766 744.186 211.659 614.571 212.909 541.562C170.798 465.882 129.609 460.615 169.182 340.27C208.755 219.925 402.779 66.4143 533.448 102.92C664.117 139.426 489.296 382.992 562.739 487.888C636.182 592.784 729.343 434.618 837.701 475.791C946.059 516.964 899.753 831.984 829.956 927.275C760.159 1022.57 654.037 1040 570.984 936.069C487.931 832.14 472.658 877.584 342.162 803.474Z" stroke="white"/>
<g style="mix-blend-mode:difference">
<path d="M544.835 661.281L551.885 661.378L551.85 663.928L542.011 663.793L542.129 655.154C543.342 654.25 544.851 653.541 546.659 653.026C548.446 652.53 550.299 652.295 552.219 652.322C554.639 652.355 556.752 652.824 558.56 653.729C560.348 654.633 561.73 655.932 562.707 657.626C563.664 659.319 564.127 661.326 564.095 663.645C564.064 665.885 563.567 667.849 562.604 669.536C561.64 671.243 560.272 672.554 558.5 673.47C556.707 674.405 554.6 674.856 552.181 674.823C549.681 674.789 547.598 674.23 545.933 673.148C544.267 672.085 543.108 670.549 542.456 668.539L545.402 668.07C545.924 669.437 546.76 670.459 547.911 671.134C549.042 671.81 550.507 672.16 552.307 672.185C554.986 672.221 557.097 671.48 558.638 669.961C560.178 668.462 560.967 666.353 561.005 663.633C561.042 660.933 560.28 658.823 558.721 657.301C557.162 655.78 554.962 655 552.123 654.961C549.243 654.921 546.836 655.408 544.902 656.422L544.835 661.281Z" fill="white"/>
<path d="M525.176 649.004L528.452 658.435C528.672 658.455 529.136 658.532 529.843 658.664L536.449 659.896L538.034 651.402L540.894 651.936L536.967 672.993L527.146 671.161C521.72 670.149 519.399 667.539 520.184 663.331C520.719 660.461 522.455 658.842 525.393 658.474L521.814 648.377L525.176 649.004ZM529.276 661.213C525.698 660.545 523.676 661.46 523.21 663.957C522.964 665.274 523.211 666.297 523.95 667.025C524.689 667.753 525.983 668.289 527.831 668.634L534.585 669.893L535.971 662.462L529.276 661.213Z" fill="white"/>
<path d="M504.397 641.441L505.004 647.961L516.014 652.007L520.672 647.423L523.657 648.52L506.524 665.044L503.652 663.988L501.299 640.302L504.397 641.441ZM506.241 661.552L514.096 653.923L505.198 650.652L506.241 661.552Z" fill="white"/>
<path d="M501.498 639.6L490.853 658.188L482.054 653.149C479.659 651.777 478.132 650.258 477.474 648.59C476.816 646.922 477.033 645.134 478.126 643.225C479.259 641.246 480.729 640.129 482.535 639.873C484.331 639.634 486.496 640.24 489.03 641.691L494.94 645.075L498.921 638.124L501.498 639.6ZM487.655 643.911C486.024 642.977 484.649 642.581 483.53 642.724C482.401 642.884 481.484 643.58 480.778 644.813C480.092 646.01 479.972 647.105 480.418 648.098C480.863 649.091 481.902 650.054 483.533 650.988L489.573 654.447L493.643 647.34L487.655 643.911Z" fill="white"/>
<path d="M471.393 618.37L465.219 625.838L476.04 634.784L482.214 627.315L484.503 629.208L470.856 645.717L468.567 643.825L474.263 636.934L463.441 627.989L457.745 634.879L455.456 632.987L469.104 616.477L471.393 618.37Z" fill="white"/>
<path d="M467.689 614.055L452.013 628.652L449.989 626.479L465.665 611.881L467.689 614.055Z" fill="white"/>
<path d="M443.325 593.972C445.571 592.885 447.752 592.706 449.868 593.432C451.983 594.159 453.923 595.76 455.689 598.235C457.024 600.107 457.839 602.007 458.133 603.935C458.399 605.858 458.125 607.712 457.31 609.497C456.483 611.266 455.126 612.824 453.237 614.171C451.462 615.437 449.616 616.189 447.697 616.427C445.779 616.665 443.924 616.355 442.132 615.496C440.34 614.637 438.77 613.263 437.423 611.374C435.774 609.062 434.93 606.863 434.892 604.778C434.838 602.704 435.58 600.713 437.118 598.805L439.174 600.913C438.134 602.416 437.647 603.869 437.713 605.271C437.768 606.657 438.388 608.18 439.572 609.841C440.536 611.192 441.661 612.184 442.946 612.814C444.232 613.445 445.607 613.668 447.072 613.483C448.536 613.298 449.993 612.689 451.443 611.655C452.859 610.645 453.905 609.493 454.58 608.201C455.239 606.921 455.49 605.55 455.332 604.09C455.159 602.641 454.561 601.201 453.539 599.768C452.262 597.977 450.943 596.817 449.583 596.288C448.212 595.743 446.718 595.802 445.102 596.463L443.325 593.972Z" fill="white"/>
<path d="M444.579 579.611L424.526 587.14L421.341 578.659C419.977 575.026 419.804 571.919 420.821 569.336C421.813 566.742 423.919 564.841 427.139 563.632C430.36 562.422 433.231 562.53 435.752 563.955C438.255 565.386 440.227 568.021 441.669 571.86L444.579 579.611ZM439.183 572.665C438.072 569.706 436.595 567.708 434.753 566.669C432.891 565.638 430.716 565.589 428.225 566.524C423.17 568.423 421.69 572.162 423.785 577.741L425.925 583.443L441.092 577.748L439.183 572.665Z" fill="white"/>
<path d="M437.49 558.54L416.45 562.553L413.257 545.815L415.821 545.326L418.457 559.146L424.793 557.938L422.286 544.795L424.85 544.306L427.357 557.449L434.37 556.111L431.616 541.672L434.275 541.684L437.49 558.54Z" fill="white"/>
<path d="M418.132 523.74C416.904 524.269 416.032 525.06 415.517 526.112C415.001 527.144 414.765 528.59 414.809 530.45C414.859 532.569 415.177 534.202 415.764 535.349C416.351 536.475 417.164 537.026 418.204 537.002C418.904 536.985 419.479 536.802 419.931 536.451C420.363 536.081 420.71 535.522 420.972 534.776C421.234 534.01 421.44 532.995 421.591 531.731L422.093 527.578C422.415 525.089 423.081 523.243 424.093 522.039C425.085 520.815 426.47 520.183 428.25 520.141C430.209 520.095 431.759 520.898 432.898 522.552C434.017 524.206 434.612 526.533 434.683 529.532C434.761 532.851 434.261 535.404 433.182 537.189C432.104 538.975 430.428 540.025 428.155 540.339L428.083 537.279C429.496 536.966 430.528 536.182 431.179 534.926C431.829 533.67 432.127 531.893 432.073 529.593C432.024 527.514 431.677 525.922 431.031 524.817C430.364 523.712 429.452 523.173 428.292 523.201C427.312 523.224 426.551 523.622 426.009 524.395C425.467 525.168 425.087 526.417 424.867 528.143L424.415 531.874C424.162 533.881 423.789 535.47 423.297 536.642C422.804 537.794 422.163 538.639 421.376 539.178C420.568 539.697 419.564 539.971 418.364 539.999C416.505 540.043 415.035 539.227 413.956 537.552C412.856 535.877 412.271 533.53 412.199 530.511C412.156 528.652 412.319 527.098 412.69 525.848C413.04 524.58 413.616 523.546 414.417 522.747C415.219 521.948 416.265 521.333 417.555 520.903L418.132 523.74Z" fill="white"/>
<path d="M434.743 517.667L413.431 515.509L413.731 512.554L435.042 514.712L434.743 517.667Z" fill="white"/>
<path d="M431.675 488.603L430.06 495.466L427.578 494.882L429.831 485.303L438.242 487.282C438.862 488.661 439.229 490.289 439.343 492.164C439.441 494.016 439.271 495.877 438.831 497.745C438.277 500.101 437.363 502.064 436.089 503.634C434.82 505.185 433.254 506.254 431.389 506.843C429.529 507.412 427.47 507.431 425.212 506.9C423.032 506.386 421.222 505.478 419.782 504.173C418.323 502.864 417.338 501.246 416.826 499.317C416.299 497.365 416.313 495.21 416.867 492.855C417.44 490.421 418.434 488.508 419.851 487.116C421.248 485.718 422.998 484.918 425.101 484.714L424.924 487.693C423.476 487.907 422.298 488.503 421.39 489.481C420.487 490.44 419.829 491.795 419.416 493.547C418.802 496.156 419.071 498.376 420.222 500.209C421.353 502.036 423.243 503.262 425.891 503.885C428.519 504.503 430.744 504.215 432.566 503.021C434.388 501.826 435.624 499.847 436.275 497.082C436.934 494.279 436.978 491.824 436.405 489.716L431.675 488.603Z" fill="white"/>
<path d="M448.409 471.097L426.933 477.291L442.723 484.163L441.561 486.831L421.921 478.283L423.07 475.643L444.546 469.448L428.757 462.576L429.918 459.908L449.559 468.456L448.409 471.097Z" fill="white"/>
<path d="M452.477 447.061L447.94 446.842L449.483 451.115L446.861 451.938L445.987 447.264L442.52 449.888L441.159 447.539L444.818 445.767L441.027 443.526L442.738 441.21L445.994 444.174L446.613 440.155L449.257 440.766L447.769 444.851L452.493 444.313L452.477 447.061Z" fill="white"/>
<path d="M472.303 440.286L457.575 424.732L459.732 422.69L474.459 438.244L472.303 440.286Z" fill="white"/>
<path d="M479.455 433.816L466.622 416.665L469 414.886L480.269 429.947L491.511 421.535L492.666 423.931L479.455 433.816Z" fill="white"/>
<path d="M494.68 423.182L484.563 404.302L487.181 402.899L496.065 419.479L508.44 412.848L509.224 415.39L494.68 423.182Z" fill="white"/>
<path d="M519.987 389.302L522.799 388.349L526.913 400.48C528.873 406.257 526.727 410.205 520.477 412.325C514.226 414.445 510.122 412.616 508.162 406.839L504.048 394.708L506.861 393.754L511.004 405.971C511.704 408.035 512.755 409.389 514.156 410.033C515.569 410.652 517.394 410.583 519.629 409.825C521.864 409.067 523.344 408.015 524.071 406.671C524.81 405.301 524.83 403.584 524.13 401.519L519.987 389.302Z" fill="white"/>
<path d="M545.256 390.453C544.572 389.304 543.675 388.542 542.565 388.167C541.474 387.789 540.01 387.742 538.172 388.026C536.077 388.35 534.499 388.877 533.438 389.608C532.397 390.335 531.956 391.213 532.115 392.241C532.222 392.933 532.478 393.48 532.884 393.883C533.307 394.262 533.906 394.534 534.68 394.698C535.474 394.859 536.507 394.932 537.78 394.917L541.963 394.877C544.472 394.874 546.389 395.296 547.714 396.144C549.056 396.969 549.862 398.261 550.134 400.02C550.434 401.957 549.837 403.597 548.345 404.941C546.85 406.265 544.62 407.156 541.655 407.614C538.374 408.121 535.778 407.956 533.868 407.118C531.957 406.28 530.699 404.754 530.094 402.54L533.118 402.073C533.612 403.434 534.523 404.355 535.853 404.838C537.182 405.32 538.983 405.386 541.256 405.035C543.312 404.717 544.846 404.166 545.858 403.382C546.867 402.579 547.283 401.604 547.106 400.457C546.956 399.489 546.463 398.786 545.626 398.349C544.79 397.911 543.501 397.696 541.762 397.701L538.003 397.736C535.981 397.745 534.357 397.581 533.131 397.244C531.925 396.905 531.004 396.379 530.368 395.668C529.748 394.934 529.347 393.974 529.164 392.788C528.879 390.95 529.498 389.387 531.019 388.1C532.537 386.792 534.789 385.908 537.773 385.447C539.611 385.163 541.174 385.124 542.46 385.329C543.764 385.513 544.863 385.95 545.759 386.641C546.655 387.332 547.4 388.29 547.994 389.513L545.256 390.453Z" fill="white"/>
<path d="M559.456 406.08L559.62 387.27L550.74 387.193L550.763 384.583L571.492 384.763L571.469 387.373L562.59 387.296L562.426 406.105L559.456 406.08Z" fill="white"/>
<path d="M588.045 409.467L584.612 400.092C584.392 400.075 583.927 400.006 583.217 399.886L576.592 398.763L575.148 407.282L572.279 406.796L575.857 385.677L585.707 387.345C591.149 388.267 593.513 390.838 592.798 395.058C592.31 397.937 590.601 399.585 587.67 400.001L591.417 410.038L588.045 409.467ZM583.742 397.327C587.331 397.935 589.337 396.987 589.762 394.483C589.985 393.162 589.722 392.143 588.971 391.428C588.22 390.712 586.917 390.198 585.064 389.884L578.29 388.736L577.028 396.19L583.742 397.327Z" fill="white"/>
<path d="M608.946 416.684L608.23 410.175L597.155 406.311L592.574 410.973L589.571 409.925L606.427 393.12L609.317 394.127L612.062 417.771L608.946 416.684ZM606.768 396.606L599.041 404.364L607.992 407.487L606.768 396.606Z" fill="white"/>
<path d="M617.526 421.587L626.554 405.085L618.763 400.823L620.016 398.533L638.202 408.482L636.95 410.772L629.159 406.51L620.132 423.012L617.526 421.587Z" fill="white"/>
<path d="M628.748 428.633L641.18 411.19L643.599 412.914L631.167 430.357L628.748 428.633Z" fill="white"/>
<path d="M660.351 441.997C658.829 443.613 657.136 444.711 655.272 445.291C653.422 445.856 651.505 445.865 649.522 445.316C647.567 444.767 645.701 443.656 643.924 441.983C642.206 440.366 640.993 438.62 640.285 436.745C639.592 434.856 639.456 432.943 639.879 431.006C640.316 429.083 641.329 427.276 642.92 425.587C644.441 423.971 646.127 422.88 647.978 422.315C649.842 421.735 651.752 421.72 653.707 422.269C655.69 422.817 657.57 423.928 659.347 425.6C661.065 427.218 662.271 428.971 662.965 430.861C663.672 432.735 663.807 434.634 663.37 436.557C662.948 438.494 661.941 440.307 660.351 441.997ZM658.101 439.879C659.966 437.898 660.844 435.827 660.736 433.666C660.642 431.49 659.576 429.442 657.537 427.523C655.513 425.617 653.405 424.676 651.212 424.7C649.034 424.737 647.02 425.739 645.17 427.705C643.305 429.686 642.42 431.764 642.514 433.94C642.622 436.101 643.695 438.142 645.734 440.061C647.758 441.967 649.859 442.901 652.037 442.863C654.229 442.839 656.25 441.845 658.101 439.879Z" fill="white"/>
<path d="M663.186 464.794L668.696 443.133L654.786 453.283L653.07 450.933L670.373 438.306L672.071 440.633L666.561 462.294L680.471 452.144L682.186 454.494L664.883 467.121L663.186 464.794Z" fill="white"/>
<path d="M681.869 480.453L684.352 476.648L679.885 475.82L680.5 473.142L684.975 474.75L684.463 470.432L687.177 470.445L686.858 474.498L690.707 472.36L691.841 475.007L687.637 476.318L690.792 478.883L688.928 480.856L686.156 477.508L684.233 481.856L681.869 480.453Z" fill="white"/>
<path d="M677.74 500.545L698.783 496.548L700.675 506.51C701.19 509.221 701.028 511.369 700.189 512.954C699.35 514.538 697.85 515.535 695.689 515.946C693.449 516.371 691.644 515.981 690.275 514.776C688.926 513.566 687.979 511.527 687.434 508.658L686.163 501.968L678.294 503.462L677.74 500.545ZM690.015 508.26C690.366 510.107 690.959 511.409 691.795 512.166C692.651 512.92 693.776 513.164 695.171 512.899C696.527 512.642 697.437 512.021 697.901 511.037C698.366 510.053 698.423 508.637 698.072 506.79L696.773 499.953L688.727 501.481L690.015 508.26Z" fill="white"/>
<path d="M689.719 538.216L689.599 531.167L692.149 531.124L692.316 540.963L683.677 541.109C682.737 539.925 681.981 538.438 681.411 536.647C680.861 534.876 680.569 533.031 680.537 531.111C680.496 528.692 680.9 526.564 681.749 524.73C682.598 522.915 683.854 521.494 685.517 520.465C687.18 519.457 689.171 518.933 691.491 518.894C693.731 518.856 695.708 519.292 697.424 520.203C699.16 521.114 700.512 522.441 701.482 524.185C702.472 525.948 702.988 528.04 703.029 530.459C703.071 532.959 702.577 535.058 701.546 536.755C700.534 538.453 699.034 539.659 697.046 540.372L696.486 537.441C697.837 536.878 698.833 536.011 699.473 534.84C700.113 533.689 700.418 532.214 700.388 530.414C700.342 527.735 699.537 525.648 697.971 524.154C696.426 522.66 694.293 521.936 691.573 521.983C688.874 522.028 686.787 522.854 685.314 524.459C683.841 526.064 683.129 528.287 683.177 531.126C683.226 534.006 683.787 536.397 684.859 538.299L689.719 538.216Z" fill="white"/>
<path d="M687.365 566.581C685.176 566.209 683.324 565.408 681.809 564.177C680.313 562.949 679.244 561.358 678.603 559.403C677.977 557.471 677.869 555.302 678.277 552.896C678.672 550.57 679.454 548.593 680.623 546.966C681.812 545.342 683.33 544.169 685.177 543.448C687.02 542.747 689.085 542.59 691.373 542.979C693.561 543.351 695.403 544.15 696.899 545.378C698.414 546.609 699.485 548.19 700.11 550.122C700.752 552.077 700.868 554.258 700.46 556.663C700.065 558.99 699.273 560.965 698.084 562.589C696.915 564.217 695.409 565.381 693.566 566.082C691.719 566.803 689.652 566.969 687.365 566.581ZM687.882 563.535C690.564 563.99 692.774 563.574 694.514 562.287C696.274 561.004 697.388 558.982 697.857 556.221C698.322 553.481 697.938 551.204 696.704 549.392C695.467 547.599 693.517 546.477 690.855 546.025C688.174 545.57 685.953 545.984 684.193 547.267C682.453 548.554 681.349 550.578 680.88 553.338C680.415 556.079 680.801 558.346 682.038 560.138C683.272 561.95 685.22 563.083 687.882 563.535Z" fill="white"/>
<path d="M673.629 571.605L691.351 577.91L694.328 569.544L696.787 570.419L689.838 589.95L687.379 589.075L690.355 580.708L672.634 574.403L673.629 571.605Z" fill="white"/>
<path d="M667.001 608.524C665.069 607.429 663.6 606.046 662.594 604.372C661.606 602.709 661.142 600.849 661.204 598.792C661.274 596.763 661.91 594.687 663.112 592.564C664.276 590.51 665.684 588.917 667.337 587.785C669.007 586.662 670.833 586.076 672.815 586.027C674.787 585.995 676.782 586.55 678.801 587.694C680.732 588.788 682.193 590.167 683.181 591.83C684.187 593.504 684.655 595.355 684.586 597.384C684.524 599.441 683.892 601.531 682.689 603.654C681.526 605.707 680.109 607.295 678.439 608.418C676.786 609.55 674.973 610.133 673.001 610.165C671.019 610.214 669.019 609.667 667.001 608.524ZM668.524 605.835C670.89 607.176 673.111 607.537 675.185 606.919C677.276 606.311 679.012 604.789 680.392 602.353C681.762 599.934 682.176 597.663 681.632 595.539C681.078 593.432 679.627 591.713 677.278 590.383C674.911 589.042 672.682 588.675 670.591 589.284C668.517 589.902 666.79 591.429 665.409 593.865C664.039 596.284 663.631 598.546 664.184 600.653C664.728 602.777 666.175 604.504 668.524 605.835Z" fill="white"/>
<path d="M651.404 622.941L655.949 617.552L657.898 619.196L651.555 626.718L644.95 621.148C645.02 619.637 645.429 618.02 646.177 616.296C646.927 614.6 647.921 613.018 649.159 611.55C650.719 609.7 652.422 608.363 654.268 607.539C656.101 606.731 657.982 606.486 659.911 606.804C661.827 607.138 663.672 608.053 665.445 609.549C667.158 610.993 668.361 612.622 669.054 614.437C669.763 616.264 669.909 618.154 669.493 620.105C669.08 622.085 668.093 623.999 666.533 625.849C664.921 627.761 663.168 629.017 661.275 629.617C659.397 630.231 657.474 630.153 655.507 629.384L657.012 626.808C658.4 627.272 659.72 627.273 660.973 626.812C662.212 626.366 663.412 625.455 664.572 624.079C666.3 622.03 667.065 619.928 666.868 617.773C666.686 615.632 665.555 613.684 663.476 611.93C661.412 610.19 659.298 609.44 657.132 609.68C654.967 609.921 652.969 611.127 651.138 613.298C649.281 615.5 648.132 617.67 647.689 619.808L651.404 622.941Z" fill="white"/>
<path d="M629.443 630.356L638.813 633.804C638.968 633.647 639.322 633.336 639.873 632.873L645.015 628.547L639.452 621.935L641.679 620.062L655.469 636.452L647.825 642.884C643.601 646.438 640.111 646.577 637.356 643.302C635.476 641.068 635.325 638.698 636.904 636.194L626.827 632.558L629.443 630.356ZM641.484 634.928C638.699 637.271 638.124 639.415 639.759 641.359C640.622 642.384 641.569 642.842 642.6 642.732C643.632 642.622 644.867 641.962 646.305 640.751L651.562 636.328L646.695 630.544L641.484 634.928Z" fill="white"/>
<path d="M625.967 632.439L636.932 650.84L628.222 656.031C625.851 657.443 623.777 658.027 622.001 657.782C620.225 657.536 618.774 656.469 617.648 654.579C616.481 652.62 616.229 650.791 616.893 649.092C617.567 647.41 619.158 645.821 621.666 644.327L627.516 640.84L623.416 633.96L625.967 632.439ZM622.925 646.615C621.31 647.577 620.29 648.581 619.865 649.626C619.45 650.688 619.606 651.829 620.333 653.049C621.04 654.234 621.935 654.876 623.018 654.976C624.102 655.075 625.451 654.643 627.066 653.681L633.045 650.118L628.852 643.082L622.925 646.615Z" fill="white"/>
<path d="M592.689 648.239L596.164 657.285L609.27 652.251L605.796 643.205L608.568 642.14L616.248 662.136L613.476 663.201L610.271 654.855L597.164 659.889L600.369 668.235L597.597 669.3L589.917 649.304L592.689 648.239Z" fill="white"/>
<path d="M580.871 650.714L582.624 659.541L594.076 669.93L590.575 670.625L581.591 662.346L576.45 673.429L573.096 674.095L579.711 660.12L577.958 651.292L580.871 650.714Z" fill="white"/>
<path d="M550.949 662.924L553.389 666.756L555.988 663.029L558.173 664.696L554.861 668.107L559.004 669.424L557.872 671.891L554.312 669.926L554.67 674.314L551.791 674.254L552.333 669.884L548.694 671.698L547.666 669.186L551.861 668.044L548.695 664.497L550.949 662.924Z" fill="white"/>
</g>
</svg>
