<svg width="829" height="564" viewBox="0 0 829 564" fill="none" xmlns="http://www.w3.org/2000/svg">
<path d="M189.41 105.29C187.877 126.603 178.983 143.24 162.73 155.2C146.477 167.16 124.78 173.14 97.6401 173.14C77.5534 173.14 60.2267 169.843 45.6601 163.25C31.2467 156.503 20.1301 146.613 12.3101 133.58C4.49008 120.547 0.580078 104.983 0.580078 86.8899C0.580078 69.5632 4.41341 54.3832 12.0801 41.3499C19.7467 28.3166 30.8634 18.2732 45.4301 11.2199C59.9967 4.16656 77.6301 0.639893 98.3301 0.639893C123.017 0.639893 142.643 5.62323 157.21 15.5899C171.777 25.5566 181.437 40.5832 186.19 60.6699L127.31 66.6499C125.01 60.0566 121.56 55.3032 116.96 52.3899C112.513 49.4766 106.227 48.0199 98.1001 48.0199C86.2934 48.0199 77.3234 51.3166 71.1901 57.9099C65.2101 64.5032 62.2201 74.1632 62.2201 86.8899C62.2201 112.803 74.4868 125.76 99.0201 125.76C116.96 125.76 127.387 118.937 130.3 105.29H189.41Z" fill="white"/>
<path d="M211.875 169V4.77989H271.215V121.39H359.535L354.015 169H211.875Z" fill="white"/>
<path d="M582.66 251L573.92 226.85H505.15L496.64 251H436.84L504.92 86.7799H575.76L643.84 251H582.66ZM539.65 130.94L520.56 183.38H558.51L539.65 130.94Z" fill="white"/>
<path d="M769.393 86.7799H828.733V176.94C828.733 203.62 821.526 223.323 807.113 236.05C792.853 248.777 770.773 255.14 740.873 255.14C710.973 255.14 688.816 248.777 674.403 236.05C660.143 223.323 653.013 203.62 653.013 176.94V86.7799H712.353V181.77C712.353 190.817 714.576 197.41 719.023 201.55C723.47 205.69 730.753 207.76 740.873 207.76C750.993 207.76 758.276 205.69 762.723 201.55C767.17 197.41 769.393 190.817 769.393 181.77V86.7799Z" fill="white"/>
<path d="M137.48 491V326.78H217.98C252.327 326.78 278.163 333.68 295.49 347.48C312.817 361.127 321.48 381.597 321.48 408.89C321.48 426.063 317.493 440.783 309.52 453.05C301.547 465.317 289.74 474.747 274.1 481.34C258.613 487.78 239.753 491 217.52 491H137.48ZM218.67 444.77C233.083 444.77 243.74 441.78 250.64 435.8C257.693 429.82 261.22 420.697 261.22 408.43C261.22 396.47 257.77 387.577 250.87 381.75C243.97 375.923 233.467 373.01 219.36 373.01H195.9V444.77H218.67Z" fill="white"/>
<path d="M347.265 491V326.78H406.605V491H347.265Z" fill="white"/>
<path d="M753.6 476.89C753.6 494.523 749.613 509.857 741.64 522.89C733.82 535.77 722.32 545.737 707.14 552.79C691.96 559.69 673.713 563.14 652.4 563.14C632.007 563.14 614.297 559.843 599.27 553.25C584.397 546.503 572.897 536.69 564.77 523.81C556.643 510.777 552.58 495.137 552.58 476.89C552.58 459.257 556.49 444 564.31 431.12C572.283 418.087 583.86 408.12 599.04 401.22C614.22 394.167 632.467 390.64 653.78 390.64C674.173 390.64 691.807 394.013 706.68 400.76C721.707 407.353 733.283 417.167 741.41 430.2C749.537 443.08 753.6 458.643 753.6 476.89ZM691.96 476.89C691.96 464.47 688.51 454.887 681.61 448.14C674.863 441.393 665.357 438.02 653.09 438.02C640.823 438.02 631.24 441.393 624.34 448.14C617.593 454.887 614.22 464.47 614.22 476.89C614.22 489.31 617.593 498.893 624.34 505.64C631.24 512.387 640.823 515.76 653.09 515.76C665.357 515.76 674.863 512.387 681.61 505.64C688.51 498.893 691.96 489.31 691.96 476.89Z" fill="white"/>
</svg>
