<svg width="292" height="291" viewBox="0 0 292 291" fill="none" xmlns="http://www.w3.org/2000/svg">
<path d="M132.835 277.281L139.884 277.378L139.849 279.928L130.01 279.793L130.129 271.154C131.341 270.25 132.851 269.541 134.658 269.026C136.445 268.53 138.299 268.295 140.218 268.322C142.638 268.355 144.752 268.824 146.56 269.729C148.348 270.633 149.73 271.932 150.707 273.626C151.664 275.319 152.126 277.326 152.094 279.645C152.064 281.885 151.567 283.849 150.604 285.536C149.64 287.243 148.272 288.554 146.499 289.47C144.706 290.405 142.6 290.856 140.18 290.823C137.68 290.789 135.598 290.23 133.933 289.147C132.267 288.085 131.108 286.549 130.455 284.539L133.402 284.07C133.923 285.437 134.76 286.459 135.91 287.134C137.041 287.81 138.507 288.16 140.306 288.185C142.986 288.221 145.096 287.48 146.637 285.961C148.178 284.462 148.967 282.353 149.004 279.633C149.041 276.933 148.28 274.823 146.721 273.301C145.162 271.78 142.962 271 140.122 270.961C137.243 270.921 134.836 271.408 132.902 272.422L132.835 277.281Z" fill="white"/>
<path d="M113.175 265.004L116.452 274.435C116.672 274.455 117.135 274.532 117.843 274.664L124.449 275.896L126.034 267.402L128.894 267.936L124.966 288.993L115.146 287.161C109.719 286.149 107.399 283.539 108.183 279.331C108.719 276.461 110.455 274.842 113.392 274.474L109.813 264.377L113.175 265.004ZM117.276 277.213C113.698 276.545 111.676 277.46 111.21 279.957C110.964 281.274 111.211 282.297 111.95 283.025C112.689 283.753 113.983 284.289 115.831 284.634L122.584 285.893L123.971 278.462L117.276 277.213Z" fill="white"/>
<path d="M92.3964 257.441L93.0043 263.961L104.014 268.007L108.672 263.423L111.657 264.52L94.5239 281.044L91.6518 279.988L89.299 256.302L92.3964 257.441ZM94.2412 277.552L102.095 269.923L93.1974 266.652L94.2412 277.552Z" fill="white"/>
<path d="M89.4975 255.6L78.8532 274.188L70.0538 269.149C67.6587 267.777 66.132 266.258 65.4737 264.59C64.8153 262.922 65.0328 261.134 66.1261 259.225C67.2591 257.246 68.7287 256.129 70.5349 255.873C72.3311 255.634 74.4962 256.24 77.0301 257.691L82.9398 261.075L86.9202 254.124L89.4975 255.6ZM75.655 259.911C74.0236 258.977 72.6484 258.581 71.5295 258.724C70.4006 258.884 69.4834 259.58 68.7777 260.813C68.0919 262.01 67.9719 263.105 68.4175 264.098C68.8631 265.091 69.9016 266.054 71.533 266.988L77.5728 270.447L81.6427 263.34L75.655 259.911Z" fill="white"/>
<path d="M59.3926 234.37L53.2187 241.838L64.04 250.784L70.2139 243.315L72.503 245.208L58.8555 261.717L56.5664 259.825L62.2624 252.934L51.4411 243.989L45.7451 250.879L43.456 248.987L57.1035 232.477L59.3926 234.37Z" fill="white"/>
<path d="M55.6889 230.054L40.0132 244.652L37.9892 242.479L53.6648 227.881L55.6889 230.054Z" fill="white"/>
<path d="M31.3245 209.972C33.5711 208.885 35.7521 208.706 37.8673 209.432C39.9825 210.159 41.9228 211.76 43.6882 214.235C45.0238 216.107 45.8386 218.007 46.1326 219.935C46.3987 221.858 46.1243 223.712 45.3094 225.497C44.4829 227.266 43.1253 228.824 41.2366 230.171C39.4618 231.437 37.6153 232.189 35.6971 232.427C33.7788 232.665 31.9237 232.355 30.1317 231.496C28.3397 230.637 26.7701 229.263 25.4229 227.374C23.7737 225.062 22.93 222.863 22.8918 220.778C22.8374 218.704 23.5792 216.713 25.1172 214.805L27.1734 216.913C26.1332 218.416 25.6463 219.869 25.7128 221.271C25.7677 222.657 26.3875 224.18 27.5722 225.841C28.5361 227.192 29.6608 228.184 30.946 228.814C32.2313 229.445 33.6064 229.668 35.0712 229.483C36.5361 229.298 37.9931 228.689 39.4422 227.655C40.8587 226.645 41.9046 225.493 42.5796 224.201C43.2384 222.921 43.4893 221.55 43.3321 220.09C43.1587 218.641 42.561 217.201 41.5389 215.768C40.2613 213.977 38.9427 212.817 37.5829 212.288C36.2116 211.743 34.7178 211.802 33.1015 212.463L31.3245 209.972Z" fill="white"/>
<path d="M32.5787 195.611L12.5256 203.14L9.34099 194.659C7.97715 191.026 7.80382 187.919 8.82102 185.336C9.81247 182.742 11.9184 180.841 15.1389 179.632C18.3594 178.422 21.2304 178.53 23.7521 179.955C26.255 181.386 28.2271 184.021 29.6683 187.859L32.5787 195.611ZM27.1826 188.665C26.0719 185.706 24.5952 183.708 22.7525 182.669C20.8911 181.638 18.7153 181.589 16.2251 182.524C11.1697 184.423 9.68945 188.161 11.7844 193.741L13.9251 199.442L29.0913 193.748L27.1826 188.665Z" fill="white"/>
<path d="M25.4902 174.54L4.44949 178.553L1.25706 161.814L3.82084 161.325L6.45685 175.146L12.7926 173.938L10.2859 160.795L12.8497 160.306L15.3564 173.449L22.37 172.111L19.616 157.672L22.2753 157.684L25.4902 174.54Z" fill="white"/>
<path d="M6.13162 139.74C4.90373 140.269 4.0321 141.06 3.51672 142.112C3.00087 143.144 2.76483 144.59 2.80859 146.45C2.85848 148.569 3.17699 150.202 3.76413 151.349C4.3508 152.475 5.16399 153.026 6.2037 153.002C6.90351 152.985 7.47935 152.802 7.93122 152.451C8.36263 152.081 8.70959 151.522 8.9721 150.776C9.23413 150.01 9.44031 148.994 9.59061 147.731L10.093 143.578C10.4146 141.089 11.0813 139.243 12.0933 138.039C13.0847 136.815 14.4702 136.183 16.2497 136.141C18.2092 136.095 19.7585 136.898 20.8978 138.552C22.017 140.206 22.6119 142.533 22.6825 145.532C22.7606 148.851 22.2605 151.403 21.1823 153.189C20.104 154.975 18.4282 156.025 16.155 156.339L16.083 153.279C17.496 152.966 18.5278 152.182 19.1784 150.926C19.8291 149.67 20.1273 147.893 20.0732 145.593C20.0243 143.514 19.6767 141.922 19.0305 140.817C18.3644 139.712 17.4514 139.173 16.2917 139.201C15.312 139.224 14.5512 139.622 14.0092 140.395C13.4673 141.168 13.0865 142.417 12.8671 144.142L12.4148 147.874C12.1619 149.881 11.7892 151.47 11.2966 152.642C10.8036 153.794 10.1633 154.639 9.37578 155.178C8.56777 155.697 7.56393 155.971 6.36427 155.999C4.50478 156.043 3.03518 155.227 1.95547 153.552C0.855761 151.877 0.270376 149.53 0.199315 146.511C0.155549 144.652 0.319022 143.097 0.689735 141.848C1.03998 140.58 1.61581 139.546 2.41723 138.747C3.21865 137.948 4.26448 137.333 5.55471 136.903L6.13162 139.74Z" fill="white"/>
<path d="M22.7424 133.667L1.43129 131.509L1.73042 128.554L23.0415 130.712L22.7424 133.667Z" fill="white"/>
<path d="M19.6743 104.603L18.0595 111.466L15.5773 110.882L17.8311 101.303L26.2414 103.282C26.8621 104.661 27.2291 106.289 27.3425 108.164C27.441 110.016 27.2703 111.877 26.8306 113.745C26.2763 116.101 25.3624 118.064 24.0889 119.634C22.82 121.185 21.2534 122.254 19.389 122.843C17.5292 123.412 15.4702 123.431 13.2118 122.899C11.0314 122.386 9.2214 121.478 7.7819 120.173C6.32293 118.864 5.3375 117.246 4.82561 115.317C4.29883 113.365 4.31258 111.21 4.86688 108.855C5.43949 106.421 6.43411 104.508 7.85072 103.116C9.24787 101.718 10.9977 100.918 13.1003 100.714L12.9234 103.693C11.4758 103.907 10.298 104.503 9.38985 105.481C8.48629 106.44 7.82836 107.795 7.41608 109.547C6.80224 112.156 7.07077 114.376 8.22168 116.209C9.35312 118.036 11.2427 119.262 13.8904 119.885C16.5186 120.503 18.7437 120.215 20.5657 119.021C22.3878 117.826 23.624 115.847 24.2745 113.082C24.9341 110.279 24.9777 107.824 24.4051 105.716L19.6743 104.603Z" fill="white"/>
<path d="M36.4091 87.0968L14.933 93.2911L30.7224 100.163L29.5611 102.831L9.92065 94.2833L11.07 91.6426L32.546 85.4483L16.7566 78.5764L17.9179 75.9082L37.5584 84.4561L36.4091 87.0968Z" fill="white"/>
<path d="M40.4771 63.0606L35.9394 62.8418L37.4827 67.1146L34.8606 67.9378L33.9864 63.2641L30.5195 65.8875L29.1583 63.5394L32.8175 61.7666L29.027 59.5263L30.7381 57.2097L33.9938 60.174L34.6125 56.1553L37.257 56.766L35.7688 60.851L40.493 60.3125L40.4771 63.0606Z" fill="white"/>
<path d="M60.3023 56.2858L45.5751 40.7318L47.7317 38.6898L62.4589 54.2438L60.3023 56.2858Z" fill="white"/>
<path d="M67.4544 49.8157L54.622 32.665L57 30.8857L68.2689 45.9466L79.5105 37.5354L80.6657 39.9307L67.4544 49.8157Z" fill="white"/>
<path d="M82.6795 39.1824L72.5628 20.302L75.1807 18.8993L84.0647 35.4791L96.4401 28.8481L97.2232 31.3895L82.6795 39.1824Z" fill="white"/>
<path d="M107.986 5.30241L110.799 4.34853L114.913 16.4799C116.872 22.2567 114.727 26.205 108.476 28.3247C102.226 30.4445 98.1214 28.6159 96.1622 22.8391L92.048 10.7077L94.8607 9.75386L99.0038 21.9704C99.704 24.0349 100.755 25.3893 102.156 26.0334C103.569 26.6521 105.394 26.5825 107.629 25.8246C109.864 25.0666 111.344 24.0153 112.071 22.6707C112.81 21.3007 112.83 19.5835 112.13 17.519L107.986 5.30241Z" fill="white"/>
<path d="M133.255 6.45255C132.572 5.30348 131.675 4.54154 130.565 4.16675C129.474 3.7889 128.01 3.74203 126.172 4.02616C124.076 4.35 122.498 4.87724 121.438 5.60786C120.397 6.33543 119.955 7.21311 120.114 8.24091C120.221 8.93269 120.478 9.47992 120.884 9.88258C121.307 10.2624 121.906 10.5342 122.68 10.6979C123.474 10.8585 124.507 10.9315 125.78 10.9169L129.963 10.8775C132.472 10.8742 134.389 11.2963 135.714 12.1438C137.055 12.9686 137.862 14.2605 138.134 16.0196C138.433 17.9566 137.837 19.5969 136.345 20.9407C134.849 22.2646 132.619 23.1557 129.655 23.614C126.374 24.1211 123.778 23.9557 121.867 23.1177C119.957 22.2797 118.699 20.7539 118.094 18.5404L121.118 18.073C121.612 19.4335 122.523 20.3551 123.852 20.8377C125.182 21.3203 126.983 21.386 129.256 21.0346C131.311 20.7169 132.845 20.1661 133.858 19.3823C134.867 18.5787 135.283 17.6037 135.105 16.4574C134.956 15.4889 134.462 14.7859 133.626 14.3486C132.789 13.9113 131.501 13.6955 129.762 13.7013L126.003 13.7359C123.98 13.7449 122.356 13.5811 121.131 13.2444C119.924 12.9046 119.003 12.3792 118.367 11.668C117.748 10.934 117.347 9.97404 117.163 8.78812C116.879 6.94995 117.498 5.38712 119.019 4.09964C120.537 2.7924 122.788 1.90811 125.773 1.44679C127.611 1.16266 129.173 1.12355 130.46 1.32943C131.763 1.5125 132.863 1.94965 133.759 2.64088C134.655 3.3321 135.4 4.28954 135.994 5.51318L133.255 6.45255Z" fill="white"/>
<path d="M147.456 22.0795L147.619 3.27024L138.74 3.19315L138.762 0.583252L159.492 0.763198L159.469 3.3731L150.589 3.29602L150.426 22.1053L147.456 22.0795Z" fill="white"/>
<path d="M176.044 25.4665L172.612 16.0915C172.392 16.0744 171.927 16.0058 171.217 15.8855L164.591 14.763L163.148 23.2817L160.279 22.7956L163.857 1.67651L173.707 3.34522C179.149 4.26726 181.513 6.83822 180.798 11.0581C180.31 13.9371 178.601 15.5847 175.67 16.001L179.416 26.0378L176.044 25.4665ZM171.742 13.3272C175.33 13.9353 177.337 12.9871 177.761 10.4828C177.985 9.16161 177.722 8.14328 176.971 7.42777C176.219 6.71227 174.917 6.1975 173.064 5.88347L166.29 4.73592L165.027 12.1897L171.742 13.3272Z" fill="white"/>
<path d="M196.946 32.6841L196.23 26.175L185.154 22.3114L180.574 26.9726L177.571 25.9252L194.427 9.11947L197.316 10.1274L200.062 33.7711L196.946 32.6841ZM194.768 12.6062L187.041 20.3642L195.992 23.4867L194.768 12.6062Z" fill="white"/>
<path d="M205.526 37.5869L214.553 21.0848L206.763 16.823L208.016 14.5332L226.202 24.4822L224.949 26.772L217.159 22.5102L208.131 39.0123L205.526 37.5869Z" fill="white"/>
<path d="M216.748 44.6331L229.18 27.1901L231.599 28.9138L219.167 46.3569L216.748 44.6331Z" fill="white"/>
<path d="M248.351 57.9966C246.829 59.613 245.136 60.7111 243.272 61.2909C241.421 61.8562 239.504 61.8645 237.521 61.316C235.566 60.7667 233.7 59.6558 231.924 57.9833C230.205 56.3657 228.993 54.6196 228.285 52.745C227.591 50.8559 227.456 48.9429 227.878 47.0059C228.315 45.0827 229.329 43.2764 230.919 41.5871C232.441 39.9707 234.127 38.8799 235.978 38.3146C237.842 37.7348 239.752 37.7196 241.706 38.269C243.69 38.8174 245.57 39.9279 247.346 41.6004C249.065 43.2181 250.271 44.9714 250.964 46.8605C251.672 48.7351 251.807 50.634 251.37 52.5572C250.947 54.4942 249.941 56.3073 248.351 57.9966ZM246.101 55.8786C247.965 53.8981 248.844 51.8271 248.736 49.6656C248.642 47.4895 247.575 45.4419 245.537 43.5227C243.512 41.6171 241.404 40.6763 239.212 40.7C237.034 40.7375 235.02 41.7392 233.169 43.7051C231.305 45.6857 230.42 47.7639 230.514 49.94C230.621 52.1015 231.695 54.1418 233.733 56.0611C235.758 57.9666 237.859 58.9006 240.036 58.8631C242.229 58.8394 244.25 57.8445 246.101 55.8786Z" fill="white"/>
<path d="M251.186 80.7942L256.696 59.1325L242.786 69.2832L241.07 66.9325L258.373 54.3061L260.071 56.6325L254.561 78.2942L268.471 68.1435L270.186 70.4942L252.883 83.1206L251.186 80.7942Z" fill="white"/>
<path d="M269.869 96.4532L272.352 92.6484L267.885 91.8203L268.5 89.1418L272.975 90.7498L272.463 86.4324L275.177 86.4447L274.858 90.498L278.707 88.3598L279.841 91.0071L275.637 92.3181L278.792 94.8831L276.928 96.8563L274.156 93.5075L272.233 97.856L269.869 96.4532Z" fill="white"/>
<path d="M265.739 116.545L286.783 112.548L288.675 122.51C289.19 125.221 289.028 127.369 288.189 128.954C287.35 130.538 285.85 131.535 283.688 131.946C281.448 132.371 279.644 131.981 278.275 130.775C276.925 129.566 275.978 127.527 275.433 124.658L274.163 117.968L266.293 119.462L265.739 116.545ZM278.014 124.26C278.365 126.107 278.959 127.409 279.795 128.166C280.65 128.92 281.776 129.164 283.171 128.899C284.526 128.641 285.437 128.021 285.901 127.037C286.366 126.053 286.423 124.637 286.072 122.79L284.773 115.953L276.727 117.481L278.014 124.26Z" fill="white"/>
<path d="M277.718 154.216L277.599 147.167L280.148 147.124L280.315 156.963L271.677 157.109C270.736 155.925 269.981 154.438 269.411 152.647C268.861 150.876 268.569 149.031 268.537 147.111C268.495 144.692 268.899 142.564 269.748 140.73C270.598 138.915 271.854 137.494 273.517 136.465C275.18 135.457 277.171 134.933 279.491 134.894C281.73 134.856 283.708 135.292 285.424 136.203C287.16 137.114 288.512 138.441 289.482 140.185C290.472 141.948 290.988 144.04 291.029 146.459C291.071 148.959 290.577 151.058 289.545 152.755C288.534 154.453 287.034 155.659 285.046 156.372L284.486 153.441C285.837 152.878 286.832 152.011 287.473 150.84C288.113 149.689 288.418 148.214 288.388 146.414C288.342 143.735 287.537 141.648 285.971 140.154C284.425 138.66 282.293 137.936 279.573 137.983C276.874 138.028 274.787 138.854 273.314 140.459C271.841 142.064 271.129 144.287 271.177 147.126C271.226 150.006 271.787 152.397 272.859 154.299L277.718 154.216Z" fill="white"/>
<path d="M275.364 182.581C273.176 182.209 271.324 181.408 269.809 180.177C268.313 178.949 267.244 177.358 266.603 175.403C265.977 173.471 265.869 171.302 266.277 168.896C266.672 166.57 267.454 164.593 268.623 162.966C269.812 161.342 271.33 160.169 273.176 159.448C275.02 158.747 277.085 158.59 279.372 158.979C281.561 159.351 283.403 160.15 284.899 161.378C286.414 162.609 287.484 164.19 288.11 166.122C288.751 168.077 288.868 170.258 288.46 172.663C288.065 174.99 287.273 176.965 286.084 178.589C284.915 180.217 283.409 181.381 281.565 182.082C279.719 182.803 277.652 182.969 275.364 182.581ZM275.882 179.535C278.563 179.99 280.774 179.574 282.514 178.287C284.274 177.004 285.388 174.982 285.857 172.221C286.322 169.481 285.938 167.204 284.704 165.392C283.467 163.599 281.517 162.477 278.855 162.025C276.173 161.57 273.953 161.984 272.193 163.267C270.453 164.554 269.349 166.578 268.88 169.338C268.414 172.079 268.8 174.346 270.038 176.138C271.272 177.95 273.22 179.083 275.882 179.535Z" fill="white"/>
<path d="M261.629 187.605L279.351 193.91L282.327 185.544L284.786 186.419L277.838 205.949L275.379 205.075L278.355 196.708L260.634 190.403L261.629 187.605Z" fill="white"/>
<path d="M255.001 224.524C253.069 223.429 251.6 222.046 250.594 220.372C249.606 218.709 249.142 216.849 249.204 214.792C249.274 212.763 249.91 210.687 251.112 208.564C252.276 206.51 253.684 204.917 255.337 203.785C257.007 202.662 258.833 202.076 260.815 202.027C262.787 201.995 264.782 202.55 266.801 203.694C268.732 204.788 270.193 206.167 271.181 207.83C272.187 209.504 272.655 211.355 272.586 213.384C272.524 215.441 271.892 217.531 270.689 219.654C269.526 221.707 268.109 223.295 266.439 224.418C264.786 225.55 262.973 226.133 261.001 226.165C259.019 226.214 257.019 225.667 255.001 224.524ZM256.524 221.835C258.89 223.176 261.111 223.537 263.185 222.919C265.276 222.311 267.012 220.789 268.392 218.353C269.762 215.934 270.176 213.663 269.632 211.539C269.078 209.432 267.627 207.713 265.278 206.383C262.911 205.042 260.682 204.675 258.591 205.284C256.517 205.902 254.79 207.429 253.409 209.865C252.039 212.284 251.631 214.546 252.184 216.653C252.728 218.777 254.175 220.504 256.524 221.835Z" fill="white"/>
<path d="M239.404 238.941L243.949 233.552L245.898 235.196L239.554 242.718L232.95 237.148C233.02 235.637 233.429 234.02 234.176 232.296C234.927 230.6 235.92 229.018 237.158 227.55C238.718 225.7 240.421 224.363 242.268 223.539C244.101 222.731 245.982 222.486 247.911 222.804C249.827 223.138 251.672 224.053 253.445 225.549C255.157 226.993 256.36 228.622 257.054 230.437C257.763 232.264 257.909 234.154 257.493 236.105C257.079 238.085 256.092 240 254.532 241.849C252.921 243.761 251.168 245.017 249.275 245.617C247.397 246.231 245.474 246.153 243.507 245.384L245.012 242.808C246.4 243.272 247.72 243.273 248.972 242.812C250.212 242.366 251.412 241.455 252.572 240.079C254.3 238.03 255.065 235.928 254.868 233.773C254.686 231.632 253.555 229.684 251.476 227.93C249.412 226.19 247.297 225.44 245.132 225.68C242.967 225.921 240.969 227.127 239.138 229.298C237.281 231.5 236.131 233.67 235.688 235.808L239.404 238.941Z" fill="white"/>
<path d="M217.443 246.356L226.813 249.804C226.968 249.647 227.321 249.336 227.872 248.873L233.014 244.546L227.452 237.935L229.679 236.062L243.469 252.452L235.825 258.884C231.601 262.438 228.111 262.577 225.356 259.302C223.476 257.068 223.325 254.698 224.904 252.194L214.826 248.558L217.443 246.356ZM229.484 250.928C226.699 253.271 226.124 255.415 227.759 257.358C228.622 258.384 229.569 258.842 230.6 258.732C231.632 258.622 232.867 257.962 234.305 256.751L239.562 252.328L234.695 246.544L229.484 250.928Z" fill="white"/>
<path d="M213.966 248.439L224.932 266.84L216.221 272.03C213.85 273.443 211.777 274.027 210.001 273.782C208.225 273.536 206.774 272.469 205.648 270.579C204.48 268.62 204.229 266.791 204.892 265.092C205.566 263.41 207.157 261.821 209.666 260.327L215.516 256.84L211.415 249.96L213.966 248.439ZM210.925 262.615C209.31 263.577 208.29 264.581 207.865 265.626C207.45 266.688 207.606 267.829 208.333 269.048C209.039 270.234 209.934 270.876 211.018 270.976C212.101 271.075 213.451 270.643 215.066 269.681L221.044 266.118L216.852 259.082L210.925 262.615Z" fill="white"/>
<path d="M180.689 264.239L184.163 273.285L197.27 268.251L193.796 259.205L196.568 258.14L204.248 278.136L201.476 279.201L198.27 270.855L185.164 275.889L188.369 284.235L185.597 285.3L177.917 265.304L180.689 264.239Z" fill="white"/>
<path d="M168.871 266.714L170.624 275.541L182.076 285.93L178.575 286.625L169.59 278.346L164.45 289.429L161.096 290.095L167.711 276.12L165.958 267.292L168.871 266.714Z" fill="white"/>
<path d="M138.948 278.923L141.388 282.756L143.987 279.029L146.173 280.696L142.86 284.107L147.004 285.424L145.871 287.891L142.312 285.926L142.67 290.314L139.79 290.254L140.332 285.884L136.694 287.698L135.666 285.186L139.861 284.044L136.695 280.496L138.948 278.923Z" fill="white"/>
</svg>
