<svg width="1116" height="1061" viewBox="0 0 1116 1061" fill="none" xmlns="http://www.w3.org/2000/svg">
<path d="M212.579 480.633C211.534 360.503 310.676 272.872 374.527 237.327C418.932 162.899 402.824 124.596 526.897 98.4812C650.971 72.3661 881.268 163.334 915.225 294.78C949.182 426.226 650.535 397.065 596.553 513.277C542.57 629.489 726.285 630.795 745.005 745.267C763.725 859.738 467.691 977.692 350.148 965.069C232.605 952.447 164.255 869.314 212.579 745.267C260.902 621.22 213.885 630.795 212.579 480.633Z" stroke="white"/>
<path d="M342.162 803.474C237.766 744.186 211.659 614.571 212.909 541.562C170.798 465.882 129.609 460.615 169.182 340.27C208.755 219.925 402.779 66.4143 533.448 102.92C664.117 139.426 489.296 382.992 562.739 487.888C636.182 592.784 729.343 434.618 837.701 475.791C946.059 516.964 899.753 831.984 829.956 927.275C760.159 1022.57 654.037 1040 570.984 936.069C487.931 832.14 472.658 877.584 342.162 803.474Z" stroke="white"/>
<path d="M212.579 480.633C211.534 360.503 310.676 272.872 374.527 237.327C418.932 162.899 402.824 124.596 526.897 98.4812C650.971 72.3661 881.268 163.334 915.225 294.78C949.182 426.226 650.535 397.065 596.553 513.277C542.57 629.489 726.285 630.795 745.005 745.267C763.725 859.738 467.691 977.692 350.148 965.069C232.605 952.447 164.255 869.314 212.579 745.267C260.902 621.22 213.885 630.795 212.579 480.633Z" stroke="white"/>
<path d="M342.162 803.474C237.766 744.186 211.659 614.571 212.909 541.562C170.798 465.882 129.609 460.615 169.182 340.27C208.755 219.925 402.779 66.4143 533.448 102.92C664.117 139.426 489.296 382.992 562.739 487.888C636.182 592.784 729.343 434.618 837.701 475.791C946.059 516.964 899.753 831.984 829.956 927.275C760.159 1022.57 654.037 1040 570.984 936.069C487.931 832.14 472.658 877.584 342.162 803.474Z" stroke="white"/>
</svg>
